
        <svg xmlns="http://www.w3.org/2000/svg" xmlns:xlink="http://www.w3.org/1999/xlink" version="1.1" width="3200" height="1598.8325444447237" viewBox="0 0 3200 1598.8325444447237">
			
			<g transform="scale(10) translate(10, 10)">
				<defs id="SvgjsDefs2536"/><g id="SvgjsG2537" featureKey="7KWit6-0" transform="matrix(1.065005196158012,0,0,1.065005196158012,-13.199674458059816,35.912230634662556)" fill="#fff"><g xmlns="http://www.w3.org/2000/svg"><g><polygon points="54.644,56.782 35.043,56.782 29.789,76.381 49.394,76.381   "/></g><g><polygon points="29.789,76.381 16.071,76.381 12.394,90.102 26.115,90.102   "/></g><g><polygon points="72.04,43.063 58.319,43.063 54.644,56.782 68.363,56.782   "/></g><g><polygon points="60.892,33.458 51.288,33.458 48.716,43.063 58.319,43.063   "/></g><g><polygon points="78.988,17.134 69.384,17.134 66.81,26.739 76.416,26.739   "/></g><g><polygon points="37.616,47.18 28.013,47.18 25.438,56.782 35.043,56.782   "/></g><g><polygon points="87.511,10.411 80.79,10.411 78.988,17.134 85.71,17.134   "/></g><g><polygon points="80.562,36.341 73.842,36.341 72.04,43.063 78.762,43.063   "/></g><g><polygon points="53.089,26.735 46.37,26.735 44.565,33.458 51.288,33.458   "/></g></g></g><g id="SvgjsG2538" featureKey="ewgXDI-0" transform="matrix(5.933220935661953,0,0,5.933220935661953,106.17054954675402,-9.159257609532844)" fill="#fff"><path d="M-0.68 25.12 l-0.36 -2.6 l0.44 -0.12 c0.4 -0.08 0.76 -0.28 1.08 -0.56 c0.3 -0.3 0.48 -0.72 0.52 -1.16 l0 -9.84 l2.62 0 l0 9.64 c0 1.22 -0.46 2.34 -1.3 3.2 c-0.64 0.6 -1.58 1.1 -2.46 1.3 z M2.32 9.72 c-0.88 0 -1.58 -0.7 -1.58 -1.56 c0 -0.42 0.16 -0.82 0.46 -1.1 c0.3 -0.3 0.7 -0.46 1.12 -0.46 c0.86 0 1.56 0.7 1.56 1.56 s-0.7 1.56 -1.56 1.56 z M9.2695 20.22 c-1.16 0 -2.24 -0.42 -3.02 -1.2 c-0.82 -0.78 -1.26 -1.84 -1.26 -2.98 l0 -5.2 l2.52 0 l0 5.2 c0 0.94 0.78 1.7 1.76 1.7 s1.78 -0.76 1.78 -1.7 l0 -5.2 l2.52 0 l0 5.2 c0 1.12 -0.46 2.18 -1.28 2.98 c-0.8 0.78 -1.86 1.2 -3.02 1.2 z M19.959 20 l-2.2 0 l-3.72 -9.16 l2.58 0 l2.24 5.48 l2.22 -5.48 l2.6 0 z M27.8685 20.22 c-1.24 0 -2.46 -0.5 -3.4 -1.4 c-0.9 -0.94 -1.4 -2.16 -1.4 -3.4 c0 -1.26 0.5 -2.48 1.4 -3.4 c0.92 -0.88 2.12 -1.38 3.4 -1.38 c1.32 0 2.52 0.5 3.38 1.38 c0.92 0.92 1.42 2.12 1.42 3.4 s-0.5 2.48 -1.42 3.4 c-0.9 0.9 -2.1 1.4 -3.38 1.4 z M27.8685 12.92 c-1.34 0 -2.44 1.12 -2.44 2.5 s1.1 2.5 2.44 2.5 c1.36 0 2.46 -1.12 2.46 -2.5 s-1.1 -2.5 -2.46 -2.5 z"/></g>
			</g>
		</svg>
	